<svg xmlns="http://www.w3.org/2000/svg" width="200" height="200" fill="none" viewBox="0 0 200 200"><defs><linearGradient id="mainGradient" x1="0%" x2="100%" y1="0%" y2="100%"><stop offset="0%" style="stop-color:#3b82f6;stop-opacity:1"/><stop offset="50%" style="stop-color:#8b5cf6;stop-opacity:1"/><stop offset="100%" style="stop-color:#ec4899;stop-opacity:1"/></linearGradient><linearGradient id="glowGradient" x1="0%" x2="100%" y1="0%" y2="100%"><stop offset="0%" style="stop-color:#60a5fa;stop-opacity:.3"/><stop offset="100%" style="stop-color:#a78bfa;stop-opacity:.3"/></linearGradient></defs><circle cx="100" cy="100" r="95" fill="url(#glowGradient)" opacity=".2"/><path fill="url(#mainGradient)" stroke="none" d="M 60 110 L 60 85 Q 60 75 70 75 L 130 75 Q 140 75 140 85 L 140 110 Z"/><rect width="90" height="15" x="55" y="110" fill="url(#mainGradient)" opacity=".8" rx="3"/><rect width="60" height="8" x="70" y="125" fill="url(#mainGradient)" opacity=".6" rx="2"/><circle cx="100" cy="58" r="22" fill="none" stroke="url(#mainGradient)" stroke-width="4"/><circle cx="100" cy="58" r="18" fill="url(#mainGradient)" opacity=".1"/><line x1="100" x2="100" y1="58" y2="48" stroke="url(#mainGradient)" stroke-linecap="round" stroke-width="3"/><line x1="100" x2="108" y1="58" y2="58" stroke="url(#mainGradient)" stroke-linecap="round" stroke-width="2.5"/><path fill="url(#mainGradient)" d="M 95 75 L 105 75 L 100 95 Z" opacity=".7"><animateTransform attributeName="transform" begin="0s" dur="1.5s" from="1 0.95" repeatCount="indefinite" to="1 1.05" type="scale"/></path><circle cx="75" cy="105" r="2.5" fill="#60A5FA"><animate attributeName="opacity" dur="2s" repeatCount="indefinite" values="0.3;1;0.3"/></circle><circle cx="125" cy="105" r="2.5" fill="#A78BFA"><animate attributeName="opacity" dur="2s" repeatCount="indefinite" values="1;0.3;1"/></circle><circle cx="85" cy="95" r="1.5" fill="#EC4899"><animate attributeName="opacity" dur="1.5s" repeatCount="indefinite" values="0.5;1;0.5"/></circle><circle cx="115" cy="95" r="1.5" fill="#3B82F6"><animate attributeName="opacity" dur="1.5s" repeatCount="indefinite" values="1;0.5;1"/></circle></svg>